# xmcd
#
# Track frame offsets:
#	150
#	19772
#	39712
#	63472
#	93128
#	113015
#	135135
#	157997
#	181412
#
# Disc length: 2682 seconds
# Revision: 0
# Processed by: cddbd v1.5.2PL0 Copyright (c) Steve Scherf et al.
# Submitted via: dBpowerAMP V12.0
#
DISCID=650a7809
DTITLE=BLUES　SISTERS　from　RESPECT - Memphis Bound ～ビートにしびれて～
DYEAR=1900
DGENRE=R&B
TTITLE0=TOE HOLD
TTITLE1=自由への祈り
TTITLE2=Stop Breaking Down Blues
TTITLE3=Misty Blue
TTITLE4=ラシンバン
TTITLE5=Can't Stop The Rain
TTITLE6=Drift Away
TTITLE7=Oh La De Da
TTITLE8=Raining In My Heart
EXTD=
EXTT0=
EXTT1=
EXTT2=
EXTT3=
EXTT4=
EXTT5=
EXTT6=
EXTT7=
EXTT8=
PLAYORDER=
